<svg width="20" height="16" viewBox="0 0 20 16" fill="none" xmlns="http://www.w3.org/2000/svg">
<g clip-path="url(#clip0_184_136)">
<path d="M6.02671 3.3672C5.7269 2.35152 4.91311 2.46284 4.35671 2.93589C2.98608 4.20197 1.20142 6.85939 2.34361 10.6859C3.30019 13.9276 7.28051 16.0007 7.28051 16.0007H2.64052C2.64052 16.0007 0.244689 13.3155 0.0305166 10.1572C-0.240743 6.16422 1.35845 3.6459 3.2145 2.00421C4.95633 0.459848 6.61251 0.000732422 6.61251 0.000732422L10.0003 11.1007L13.3882 0.000732422C13.3882 0.000732422 15.0443 0.459849 16.7862 2.00421C18.6422 3.6459 20.2414 6.16422 19.9702 10.1572C19.756 13.3155 17.3602 16.0007 17.3602 16.0007H12.7202C12.7202 16.0007 16.7002 13.9276 17.6571 10.6859C18.7993 6.85983 17.0146 4.20241 15.644 2.93589C15.0871 2.46284 14.2734 2.35152 13.974 3.3672C12.946 6.60894 10.0008 15.8972 10.0008 15.8972C10.0008 15.8972 7.05552 6.60583 6.02755 3.3672H6.02671Z" fill="white"/>
</g>
<defs>
<clipPath id="clip0_184_136">
<rect width="20" height="16" fill="white"/>
</clipPath>
</defs>
</svg>
